<?xml version="1.0" standalone="no"?>
<!DOCTYPE svg PUBLIC "-//W3C//DTD SVG 20010904//EN"
 "http://www.w3.org/TR/2001/REC-SVG-20010904/DTD/svg10.dtd">
<svg version="1.0" xmlns="http://www.w3.org/2000/svg"
 width="291.000000pt" height="173.000000pt" viewBox="0 0 291.000000 173.000000"
 preserveAspectRatio="xMidYMid meet">
<metadata>
Created by potrace 1.15, written by Peter Selinger 2001-2017
</metadata>
<g transform="translate(0.000000,173.000000) scale(0.100000,-0.100000)"
fill="#000000" stroke="none">
<path d="M0 1154 c0 -460 3 -574 13 -566 8 7 62 -15 187 -77 624 -307 1323
-381 1988 -210 105 27 255 76 384 125 39 15 49 16 63 4 50 -42 -23 -105 -250
-216 -211 -103 -472 -178 -706 -203 -57 -5 129 -9 574 -10 l657 -1 -1 253 c-1
235 -1 248 -14 191 -34 -157 -173 -361 -215 -317 -5 4 3 35 16 68 37 89 74
222 74 266 0 71 -64 88 -264 69 -70 -6 -131 -8 -136 -5 -35 21 68 83 182 110
121 28 324 13 349 -27 5 -7 9 242 9 555 l0 567 -182 -1 c-101 -1 -174 -3 -163
-5 65 -13 137 -40 155 -56 25 -23 29 -105 5 -114 -8 -3 -40 4 -72 16 -82 32
-223 34 -273 4 -48 -28 -66 -66 -51 -114 13 -45 65 -76 196 -115 50 -15 111
-38 136 -51 143 -72 172 -241 62 -364 -75 -84 -209 -122 -356 -100 -89 13
-169 39 -198 66 -25 22 -27 102 -3 111 9 3 44 -4 78 -17 42 -15 92 -24 162
-27 87 -5 107 -3 148 15 36 16 50 30 62 58 35 83 -6 125 -172 177 -140 44
-183 66 -226 117 -122 141 -39 342 159 389 23 5 -334 9 -902 9 -575 0 -919 -4
-887 -9 66 -11 118 -37 159 -81 62 -64 66 -87 73 -363 6 -234 7 -253 29 -297
13 -27 21 -55 17 -63 -3 -8 -26 -28 -52 -45 -55 -35 -71 -30 -111 33 -15 23
-28 44 -30 46 -1 2 -19 -11 -40 -29 -85 -75 -231 -110 -338 -80 -175 49 -232
291 -100 424 76 75 192 105 337 87 42 -6 89 -13 104 -17 l27 -7 -5 79 c-8 142
-42 176 -182 182 -80 3 -102 0 -185 -27 -52 -16 -98 -28 -103 -25 -4 3 -8 27
-8 53 0 34 5 53 19 65 23 21 115 53 183 65 39 6 -4 9 -164 10 l-218 1 0 -576z
m1076 534 c4 -7 45 -156 90 -333 45 -176 85 -313 88 -305 3 8 37 149 76 314
39 164 75 307 81 317 8 16 21 19 83 19 48 0 77 -5 84 -13 6 -7 45 -156 87
-332 41 -176 77 -324 78 -328 1 -4 38 131 81 300 44 169 85 323 92 341 l13 32
75 0 c73 0 76 -1 76 -23 0 -24 -232 -774 -250 -808 -9 -16 -22 -19 -85 -19
-66 0 -76 2 -89 23 -7 12 -46 159 -86 327 -40 168 -74 306 -75 307 -1 2 -34
-136 -75 -305 -40 -169 -79 -317 -87 -329 -12 -20 -22 -23 -83 -23 -49 0 -73
4 -84 16 -9 8 -16 17 -16 19 0 2 -54 180 -120 396 -66 217 -118 399 -116 406
7 17 152 18 162 1z"/>
<path d="M385 1226 c-66 -25 -107 -98 -90 -159 24 -85 52 -107 136 -107 71 0
122 17 169 57 43 37 60 80 60 154 0 56 -2 57 -140 64 -70 4 -106 2 -135 -9z"/>
<path d="M0 281 l0 -281 648 1 c609 1 640 2 530 15 -210 26 -465 100 -663 195
-162 77 -382 222 -482 319 l-33 31 0 -280z"/>
</g>
</svg>
